# xmcd
#
# Track frame offsets: 
#        150
#        38980
#        61210
#        102793
#        140957
#        175557
#        215393
#        247509
#        283127
#        300737
#        316867
#        337390
#
# Disc length: 4753 seconds
#
# Revision: 0
# Processed by: cddbd v1.5.2PL0 Copyright (c) Steve Scherf et al.
# Submitted via: ExactAudioCopy v1.0b3
#
DISCID=ad128f0c
DTITLE=Various Artist - Urban Trance Vol. 1 - CD 2
DYEAR=1900
DGENRE=
TTITLE0=Thomas Bronzwear - Close Horizon (Guiseppe Ottaviani Mix)
TTITLE1=Lange Vs. Gareth Enemy - Another You, Another Me
TTITLE2=Nic Chagall - What You Need (NC In Love With Prog Mix)
TTITLE3=Armin Van Buuren - Communication (Part 3)
TTITLE4=Joop - The Future (Original)
TTITLE5=Jamaster-A - Bells Of Tiananmen (Airbase Rmx)
TTITLE6=Arctic Quest - Black Smoke
TTITLE7=Signum - Harmonic
TTITLE8=Visior and Dark Moon - Beautiful People (Original Edit)
TTITLE9=Woody Van Eyden Feat. Jimmy H. - Y68 (Guiseppe Ottaviani Rmx E
TTITLE9=dit)
TTITLE10=DT8 Project - Hold Me Till The End (Ronski Speed Mix Edit)
TTITLE11=Kyau Vs. Albert - Always A Fool
EXTD=
EXTT0=
EXTT1=
EXTT2=
EXTT3=
EXTT4=
EXTT5=
EXTT6=
EXTT7=
EXTT8=
EXTT9=
EXTT10=
EXTT11=
PLAYORDER=
